<svg xmlns="http://www.w3.org/2000/svg" viewBox="0 0 208.29 33.55"><defs><style>.cls-1{fill:#5a5b5d;}.cls-2{fill:#00a3c9;}.cls-3{fill:#5ac5c4;}.cls-4{fill:#00678f;}</style></defs><g id="Layer_2" data-name="Layer 2"><g id="Layer_1-2" data-name="Layer 1"><path class="cls-1" d="M89.14,14.55h9.6v2c-3.35.44-6.23,2.54-6.23,5.08,0,2.84,3.62,5.14,7.47,5.14h.91c3.85,0,7.47-2.3,7.47-5.14,0-2.49-2.76-4.57-6-5.05V14.55H112V12.1H89.14Zm15.73,7.12c0,1.57-2.31,2.65-4.43,2.65S96,23.24,96,21.67,98.31,19,100.44,19,104.87,20.08,104.87,21.67Z"/><polygon class="cls-1" points="132.06 13.59 135.23 13.55 135.23 4.59 132.06 4.59 132.06 13.59"/><path class="cls-1" d="M117.24,17h14.82v1.45H117.24V23a1.85,1.85,0,0,0,.47,1.4,2.17,2.17,0,0,0,1.42.4h16.1V22.33H120.55V20.82h14.68V14.59h-18Z"/><polygon class="cls-1" points="183.62 4.59 180.44 4.59 180.44 15.53 183.6 15.53 183.62 10.37 186.81 10.37 186.81 7.87 183.62 7.87 183.62 4.59"/><polygon class="cls-1" points="164.99 19 180.44 19 180.44 24.86 183.62 24.87 183.62 16.51 164.99 16.51 164.99 19"/><path class="cls-1" d="M164.09,10.19A4.35,4.35,0,0,0,166,13.81a7,7,0,0,0,4.33,1.35,6.64,6.64,0,0,0,4.24-1.35,4.35,4.35,0,0,0,1.87-3.62,3.45,3.45,0,0,0-.28-1.3,4.21,4.21,0,0,0-.78-1.11h2.51V5.38h-6V3.44h-3.42V5.38h-6.07v2.4h2.73a3.56,3.56,0,0,0-.81,1.11A3.26,3.26,0,0,0,164.09,10.19Zm4-1.7a3.44,3.44,0,0,1,2.14-.71,3.35,3.35,0,0,1,2.1.71,2.27,2.27,0,0,1,.95,1.8,2.16,2.16,0,0,1-.95,1.72,3.17,3.17,0,0,1-2.1.75,3.25,3.25,0,0,1-2.14-.75,2.19,2.19,0,0,1-.91-1.72A2.31,2.31,0,0,1,168.13,8.49Z"/><polygon class="cls-1" points="157.07 11.06 154.38 11.06 154.38 4.59 151.45 4.59 151.45 24.91 154.38 24.88 154.38 13.56 157.07 13.56 157.07 24.91 160.09 24.88 160.09 4.59 157.07 4.59 157.07 11.06"/><path class="cls-1" d="M142.49,7.08H149V4.59H139.3V18a1.36,1.36,0,0,0,.6,1.25,2.6,2.6,0,0,0,1.42.29h8.13v-2.5h-7Z"/><polygon class="cls-1" points="203.28 19.18 206.46 19.16 206.47 4.59 188.8 4.59 188.8 7.08 203.28 7.08 203.28 19.18"/><polygon class="cls-1" points="200.16 21.29 200.16 12.94 197.02 12.94 197.02 21.29 194.3 21.29 194.3 12.94 191.18 12.94 191.18 21.29 187.34 21.29 187.34 23.78 208.29 23.78 208.29 21.29 200.16 21.29"/><path class="cls-1" d="M95.79,9.93a9.37,9.37,0,0,0,4.75-2.44,9,9,0,0,0,4.71,2.42,25.93,25.93,0,0,0,5.35.8l.56-2.54h0a18.83,18.83,0,0,1-6-1.13c-1.76-.65-3-1.74-3-2.69h-3.3c0,.85-1.23,2-3,2.69a17.84,17.84,0,0,1-6,1.15v0l.56,2.49A24.67,24.67,0,0,0,95.79,9.93Z"/><path class="cls-1" d="M122.15,9.43a9,9,0,0,0,3.13,2.65,15.79,15.79,0,0,0,4.27,1.2l.62-2.53a8.8,8.8,0,0,1-5.34-2.58,5.59,5.59,0,0,1-1-3.55h-3.41a5.52,5.52,0,0,1-1.07,3.57A8.83,8.83,0,0,1,114,10.78v0l.6,2.47a16.66,16.66,0,0,0,4.14-1.18A8.84,8.84,0,0,0,122.15,9.43Z"/><path class="cls-2" d="M28.9,33.55H19.78c.1,0,.44-.44.52-.53a6.15,6.15,0,0,0,.5-.62,6.84,6.84,0,0,0,.93-1.75,8.83,8.83,0,0,0-.15-6.54,54.32,54.32,0,0,0-3.38-5.39,15,15,0,0,1-2.55-8.89,10.29,10.29,0,0,1,2.46-5.78h8.78a9,9,0,0,0-2.34,9.09,18.43,18.43,0,0,0,2.64,5.09A35.35,35.35,0,0,1,30,22.94a11,11,0,0,1,.74,6.5,10.46,10.46,0,0,1-1.07,3C29.54,32.61,29.1,33.55,28.9,33.55Z"/><path class="cls-3" d="M34,24.94H49.09V0H29.18a6.92,6.92,0,0,0-1.77,6.69c.52,2.13,2.06,4,3.43,5.86,2.18,2.89,4.56,6.15,3.89,10A7.78,7.78,0,0,1,34,24.94Z"/><path class="cls-4" d="M0,0V24.94H14.89a6.12,6.12,0,0,0,0-4.62c-1.44-3.52-3.78-5.42-5.08-8.48C8.56,8.93,8.42,6.28,9.48,2.46a21.34,21.34,0,0,1,1-2.46Z"/><path class="cls-2" d="M79.66,0H67.3V19.78c0,.1,0,.58,0,1.07-.13,3.1-.86,3.72-1.63,4.09h14Z"/><path class="cls-4" d="M52.46,4.08V29.2a4.09,4.09,0,0,0,8.17.08V4.08Z"/></g></g></svg>